<mxfile host="app.diagrams.net" modified="2023-12-24T14:30:08.633Z" agent="Mozilla/5.0 (Windows NT 10.0; Win64; x64) AppleWebKit/537.36 (KHTML, like Gecko) Chrome/120.0.0.0 Safari/537.36" etag="FDaiZODkESxzzajyADW5" version="22.1.11" type="device" pages="2">
  <diagram name="‫עמוד-1‬" id="7ujGVMIC4xtKWr2U2t12">
    <mxGraphModel dx="1914" dy="966" grid="1" gridSize="10" guides="1" tooltips="1" connect="1" arrows="1" fold="1" page="1" pageScale="1" pageWidth="827" pageHeight="1169" math="0" shadow="0">
      <root>
        <mxCell id="0" />
        <mxCell id="1" parent="0" />
        <mxCell id="sE4PfnkllYC4l5VLcqRY-1" value="" style="rounded=0;whiteSpace=wrap;html=1;container=0;" parent="1" vertex="1">
          <mxGeometry x="903.87" y="188.39999999999998" width="406.78" height="311.6" as="geometry" />
        </mxCell>
        <mxCell id="bLk-eUr5ARzQPCFEUJqk-20" value="&lt;h1 style=&quot;font-size: 38px;&quot;&gt;קבלת קובץ torrent&amp;nbsp;&lt;/h1&gt;" style="text;html=1;strokeColor=none;fillColor=none;spacing=5;spacingTop=-20;whiteSpace=wrap;overflow=hidden;rounded=0;fontSize=38;align=center;" parent="1" vertex="1">
          <mxGeometry x="470" y="20" width="720" height="60" as="geometry" />
        </mxCell>
        <mxCell id="k2CcHp0lFz3wV-T5hJr8-212" style="edgeStyle=orthogonalEdgeStyle;orthogonalLoop=1;jettySize=auto;html=1;entryX=1.044;entryY=0.472;entryDx=0;entryDy=0;entryPerimeter=0;startArrow=classic;startFill=1;rounded=1;" parent="1" edge="1">
          <mxGeometry relative="1" as="geometry">
            <mxPoint x="744.3063414634144" y="266.2847999999999" as="targetPoint" />
            <mxPoint x="952.8095441890132" y="266.5" as="sourcePoint" />
          </mxGeometry>
        </mxCell>
        <mxCell id="k2CcHp0lFz3wV-T5hJr8-186" value="תיקיית קבצים" style="swimlane;whiteSpace=wrap;html=1;fillColor=#dae8fc;strokeColor=#6c8ebf;" parent="1" vertex="1">
          <mxGeometry x="893.2694520547943" y="539.9985503685504" width="168.49315068493146" height="59.95085995085995" as="geometry" />
        </mxCell>
        <mxCell id="k2CcHp0lFz3wV-T5hJr8-191" value="לוגיקה" style="ellipse;whiteSpace=wrap;html=1;fillColor=#e1d5e7;strokeColor=#9673a6;" parent="1" vertex="1">
          <mxGeometry x="1076.369315068493" y="257.88968058968055" width="84.24657534246573" height="71.94103194103195" as="geometry" />
        </mxCell>
        <mxCell id="k2CcHp0lFz3wV-T5hJr8-187" style="edgeStyle=orthogonalEdgeStyle;orthogonalLoop=1;jettySize=auto;html=1;startArrow=classic;startFill=1;endArrow=classic;endFill=1;curved=1;" parent="1" target="k2CcHp0lFz3wV-T5hJr8-191" edge="1">
          <mxGeometry relative="1" as="geometry">
            <mxPoint x="1062.3023237143498" y="389.79999999999995" as="sourcePoint" />
          </mxGeometry>
        </mxCell>
        <mxCell id="k2CcHp0lFz3wV-T5hJr8-193" style="edgeStyle=orthogonalEdgeStyle;orthogonalLoop=1;jettySize=auto;html=1;entryX=0.5;entryY=0;entryDx=0;entryDy=0;startArrow=classic;startFill=1;rounded=1;" parent="1" source="k2CcHp0lFz3wV-T5hJr8-194" target="k2CcHp0lFz3wV-T5hJr8-191" edge="1">
          <mxGeometry relative="1" as="geometry" />
        </mxCell>
        <mxCell id="k2CcHp0lFz3wV-T5hJr8-194" value="הצפנה\פענוח" style="ellipse;whiteSpace=wrap;html=1;fillColor=#ffe6cc;strokeColor=#d79b00;" parent="1" vertex="1">
          <mxGeometry x="1177.4669863013696" y="194.0986486486486" width="84.24657534246573" height="71.94103194103195" as="geometry" />
        </mxCell>
        <mxCell id="k2CcHp0lFz3wV-T5hJr8-190" style="edgeStyle=orthogonalEdgeStyle;rounded=1;orthogonalLoop=1;jettySize=auto;html=1;entryX=1;entryY=0.5;entryDx=0;entryDy=0;startArrow=classic;startFill=1;" parent="1" source="k2CcHp0lFz3wV-T5hJr8-191" edge="1">
          <mxGeometry relative="1" as="geometry">
            <mxPoint x="1037.0560273972392" y="266.42476658476653" as="targetPoint" />
          </mxGeometry>
        </mxCell>
        <mxCell id="k2CcHp0lFz3wV-T5hJr8-196" style="edgeStyle=orthogonalEdgeStyle;rounded=0;orthogonalLoop=1;jettySize=auto;html=1;entryX=0.419;entryY=-0.057;entryDx=0;entryDy=0;entryPerimeter=0;endArrow=classic;endFill=1;startArrow=classic;startFill=1;" parent="1" target="k2CcHp0lFz3wV-T5hJr8-186" edge="1">
          <mxGeometry relative="1" as="geometry">
            <mxPoint x="1020.2" y="419.7534931383709" as="sourcePoint" />
          </mxGeometry>
        </mxCell>
        <mxCell id="k2CcHp0lFz3wV-T5hJr8-210" value="&lt;h1 style=&quot;font-size: 30px;&quot;&gt;לקוח&lt;/h1&gt;" style="text;html=1;strokeColor=none;fillColor=none;spacing=5;spacingTop=-20;whiteSpace=wrap;overflow=hidden;rounded=0;fontSize=30;align=center;" parent="1" vertex="1">
          <mxGeometry x="952.8076712328766" y="120.00270270270272" width="308.90410958904107" height="59.95085995085995" as="geometry" />
        </mxCell>
        <mxCell id="SMqA4ybugY09nhs5ZCD9-6" style="edgeStyle=orthogonalEdgeStyle;orthogonalLoop=1;jettySize=auto;html=1;curved=1;" parent="1" source="SMqA4ybugY09nhs5ZCD9-4" target="k2CcHp0lFz3wV-T5hJr8-191" edge="1">
          <mxGeometry relative="1" as="geometry" />
        </mxCell>
        <mxCell id="SMqA4ybugY09nhs5ZCD9-4" value="ממשק משתמש" style="ellipse;whiteSpace=wrap;html=1;aspect=fixed;fillColor=#0050ef;fontColor=#ffffff;strokeColor=#001DBC;" parent="1" vertex="1">
          <mxGeometry x="1230" y="263" width="80" height="80" as="geometry" />
        </mxCell>
        <mxCell id="SMqA4ybugY09nhs5ZCD9-7" style="edgeStyle=orthogonalEdgeStyle;orthogonalLoop=1;jettySize=auto;html=1;curved=1;startArrow=classic;startFill=1;" parent="1" source="SMqA4ybugY09nhs5ZCD9-5" target="SMqA4ybugY09nhs5ZCD9-4" edge="1">
          <mxGeometry relative="1" as="geometry" />
        </mxCell>
        <mxCell id="SMqA4ybugY09nhs5ZCD9-5" value="Actor" style="shape=umlActor;verticalLabelPosition=bottom;verticalAlign=top;html=1;outlineConnect=0;" parent="1" vertex="1">
          <mxGeometry x="1490" y="273" width="30" height="60" as="geometry" />
        </mxCell>
        <mxCell id="k2CcHp0lFz3wV-T5hJr8-155" value="" style="rounded=0;whiteSpace=wrap;html=1;container=0;" parent="1" vertex="1">
          <mxGeometry x="340" y="188.4" width="406.78" height="311.6" as="geometry" />
        </mxCell>
        <mxCell id="k2CcHp0lFz3wV-T5hJr8-156" value="&lt;h1 style=&quot;font-size: 28px;&quot;&gt;שרת&lt;/h1&gt;" style="text;html=1;strokeColor=none;fillColor=none;spacing=5;spacingTop=-20;whiteSpace=wrap;overflow=hidden;rounded=0;fontSize=28;align=center;container=0;" parent="1" vertex="1">
          <mxGeometry x="340" y="120" width="399.5121951219512" height="56.99999999999999" as="geometry" />
        </mxCell>
        <mxCell id="se54vmfHvoQXIh_2HpAS-2" style="edgeStyle=orthogonalEdgeStyle;rounded=0;orthogonalLoop=1;jettySize=auto;html=1;startArrow=classic;startFill=1;" parent="1" source="k2CcHp0lFz3wV-T5hJr8-160" edge="1">
          <mxGeometry relative="1" as="geometry">
            <mxPoint x="655.7595441890135" y="266.5" as="targetPoint" />
          </mxGeometry>
        </mxCell>
        <mxCell id="k2CcHp0lFz3wV-T5hJr8-160" value="לוגיקה" style="ellipse;whiteSpace=wrap;html=1;fillColor=#e1d5e7;strokeColor=#9673a6;container=0;" parent="1" vertex="1">
          <mxGeometry x="485.2771618625277" y="262.5" width="108.95787139689578" height="62.699999999999996" as="geometry" />
        </mxCell>
        <mxCell id="k2CcHp0lFz3wV-T5hJr8-161" style="edgeStyle=orthogonalEdgeStyle;orthogonalLoop=1;jettySize=auto;html=1;curved=1;startArrow=classic;startFill=1;" parent="1" source="k2CcHp0lFz3wV-T5hJr8-162" target="k2CcHp0lFz3wV-T5hJr8-160" edge="1">
          <mxGeometry relative="1" as="geometry" />
        </mxCell>
        <mxCell id="k2CcHp0lFz3wV-T5hJr8-162" value="פרוטוקול" style="ellipse;whiteSpace=wrap;html=1;fillColor=#f8cecc;strokeColor=#b85450;container=0;" parent="1" vertex="1">
          <mxGeometry x="349.99964523281596" y="336.6" width="108.95787139689578" height="68.39999999999999" as="geometry" />
        </mxCell>
        <mxCell id="k2CcHp0lFz3wV-T5hJr8-167" value="הצפנה\פענוח" style="ellipse;whiteSpace=wrap;html=1;fillColor=#ffe6cc;strokeColor=#d79b00;container=0;" parent="1" vertex="1">
          <mxGeometry x="358.159645232816" y="194.1" width="108.95787139689578" height="68.39999999999999" as="geometry" />
        </mxCell>
        <mxCell id="k2CcHp0lFz3wV-T5hJr8-158" style="edgeStyle=orthogonalEdgeStyle;rounded=1;orthogonalLoop=1;jettySize=auto;html=1;entryX=0.5;entryY=1;entryDx=0;entryDy=0;startArrow=classicThin;startFill=1;" parent="1" source="k2CcHp0lFz3wV-T5hJr8-160" target="k2CcHp0lFz3wV-T5hJr8-167" edge="1">
          <mxGeometry relative="1" as="geometry" />
        </mxCell>
        <mxCell id="31zJLPRy_C4L5xMZFLWY-1" style="edgeStyle=orthogonalEdgeStyle;rounded=0;orthogonalLoop=1;jettySize=auto;html=1;entryX=1;entryY=1;entryDx=0;entryDy=0;startArrow=classic;startFill=1;" parent="1" source="c7AHqqmDSoTrRQP3yUCX-1" target="k2CcHp0lFz3wV-T5hJr8-160" edge="1">
          <mxGeometry relative="1" as="geometry" />
        </mxCell>
        <mxCell id="31zJLPRy_C4L5xMZFLWY-2" style="edgeStyle=orthogonalEdgeStyle;rounded=0;orthogonalLoop=1;jettySize=auto;html=1;entryX=0.5;entryY=0;entryDx=0;entryDy=0;startArrow=classic;startFill=1;" parent="1" source="c7AHqqmDSoTrRQP3yUCX-1" target="sE4PfnkllYC4l5VLcqRY-8" edge="1">
          <mxGeometry relative="1" as="geometry" />
        </mxCell>
        <mxCell id="c7AHqqmDSoTrRQP3yUCX-1" value="עבודה מול מערכת הקבצים" style="ellipse;whiteSpace=wrap;html=1;fillColor=#f5f5f5;fontColor=#333333;strokeColor=#666666;container=0;" parent="1" vertex="1">
          <mxGeometry x="579.9960975609756" y="390" width="108.95787139689578" height="68.39999999999999" as="geometry" />
        </mxCell>
        <mxCell id="Nn9LHgjWIjoiWbTeKUJ--1" style="edgeStyle=orthogonalEdgeStyle;rounded=0;orthogonalLoop=1;jettySize=auto;html=1;entryX=1;entryY=1;entryDx=0;entryDy=0;startArrow=classic;startFill=1;" edge="1" parent="1" source="sE4PfnkllYC4l5VLcqRY-2" target="k2CcHp0lFz3wV-T5hJr8-191">
          <mxGeometry relative="1" as="geometry" />
        </mxCell>
        <mxCell id="sE4PfnkllYC4l5VLcqRY-2" value="פרוטוקול" style="ellipse;whiteSpace=wrap;html=1;fillColor=#f8cecc;strokeColor=#b85450;container=0;" parent="1" vertex="1">
          <mxGeometry x="1121.039645232816" y="380" width="108.95787139689578" height="68.39999999999999" as="geometry" />
        </mxCell>
        <mxCell id="sE4PfnkllYC4l5VLcqRY-4" value="עבודה מול מערכת הקבצים" style="ellipse;whiteSpace=wrap;html=1;fillColor=#f5f5f5;fontColor=#333333;strokeColor=#666666;container=0;" parent="1" vertex="1">
          <mxGeometry x="952.8060975609756" y="351.6" width="108.95787139689578" height="68.39999999999999" as="geometry" />
        </mxCell>
        <mxCell id="sE4PfnkllYC4l5VLcqRY-8" value="&amp;nbsp;Torrent תיקיית קבצים" style="swimlane;whiteSpace=wrap;html=1;fillColor=#dae8fc;strokeColor=#6c8ebf;startSize=23;" parent="1" vertex="1">
          <mxGeometry x="571.5094520547943" y="549.9985503685504" width="168.49315068493146" height="59.95085995085995" as="geometry" />
        </mxCell>
        <mxCell id="Nn9LHgjWIjoiWbTeKUJ--2" style="edgeStyle=orthogonalEdgeStyle;rounded=0;orthogonalLoop=1;jettySize=auto;html=1;startArrow=classic;startFill=1;" edge="1" parent="1" source="ohIj8E1imRUmQ2mG40Co-1" target="SMqA4ybugY09nhs5ZCD9-4">
          <mxGeometry relative="1" as="geometry" />
        </mxCell>
        <mxCell id="ohIj8E1imRUmQ2mG40Co-1" value="תקינות" style="ellipse;whiteSpace=wrap;html=1;aspect=fixed;" parent="1" vertex="1">
          <mxGeometry x="1230" y="410" width="80" height="80" as="geometry" />
        </mxCell>
        <mxCell id="Nn9LHgjWIjoiWbTeKUJ--3" value="&lt;font style=&quot;font-size: 20px;&quot;&gt;תקשורת רגילה&amp;nbsp;&lt;/font&gt;" style="ellipse;whiteSpace=wrap;html=1;aspect=fixed;fillColor=#d5e8d4;strokeColor=#82b366;" vertex="1" parent="1">
          <mxGeometry x="952.81" y="216.49" width="85.91" height="85.91" as="geometry" />
        </mxCell>
        <mxCell id="Nn9LHgjWIjoiWbTeKUJ--4" value="&lt;font style=&quot;font-size: 20px;&quot;&gt;תקשורת רגילה&amp;nbsp;&lt;/font&gt;" style="ellipse;whiteSpace=wrap;html=1;aspect=fixed;fillColor=#d5e8d4;strokeColor=#82b366;" vertex="1" parent="1">
          <mxGeometry x="660.8699999999999" y="226.49" width="85.91" height="85.91" as="geometry" />
        </mxCell>
      </root>
    </mxGraphModel>
  </diagram>
  <diagram id="w-Ln1UiFjOK_LUurywYE" name="‫עמוד-2‬">
    <mxGraphModel dx="798" dy="411" grid="1" gridSize="10" guides="1" tooltips="1" connect="1" arrows="1" fold="1" page="1" pageScale="1" pageWidth="827" pageHeight="1169" math="0" shadow="0">
      <root>
        <mxCell id="0" />
        <mxCell id="1" parent="0" />
      </root>
    </mxGraphModel>
  </diagram>
</mxfile>
